<svg width="24" height="24" viewBox="0 0 24 24" fill="none" xmlns="http://www.w3.org/2000/svg">
<path d="M5.75 8.25C6.16421 8.25 6.5 7.91421 6.5 7.5C6.5 7.08579 6.16421 6.75 5.75 6.75C5.33579 6.75 5 7.08579 5 7.5C5 7.91421 5.33579 8.25 5.75 8.25Z" fill="#505E99"/>
<path d="M9.5 8H18.5C18.7761 8 19 7.77614 19 7.5C19 7.22386 18.7761 7 18.5 7H9.5C9.22386 7 9 7.22386 9 7.5C9 7.77614 9.22386 8 9.5 8Z" fill="#505E99"/>
<path d="M18.5 12.5H9.5C9.22386 12.5 9 12.2761 9 12C9 11.7239 9.22386 11.5 9.5 11.5H18.5C18.7761 11.5 19 11.7239 19 12C19 12.2761 18.7761 12.5 18.5 12.5Z" fill="#505E99"/>
<path d="M18.5 17H9.5C9.22386 17 9 16.7761 9 16.5C9 16.2239 9.22386 16 9.5 16H18.5C18.7761 16 19 16.2239 19 16.5C19 16.7761 18.7761 17 18.5 17Z" fill="#505E99"/>
<path d="M5.75 12.758C6.16421 12.758 6.5 12.4222 6.5 12.008C6.5 11.5938 6.16421 11.258 5.75 11.258C5.33579 11.258 5 11.5938 5 12.008C5 12.4222 5.33579 12.758 5.75 12.758Z" fill="#505E99"/>
<path d="M6.5 16.5C6.5 16.9142 6.16421 17.25 5.75 17.25C5.33579 17.25 5 16.9142 5 16.5C5 16.0858 5.33579 15.75 5.75 15.75C6.16421 15.75 6.5 16.0858 6.5 16.5Z" fill="#505E99"/>
<path fill-rule="evenodd" clip-rule="evenodd" d="M20 3H4C2.89543 3 2 3.89543 2 5V19C2 20.1046 2.89543 21 4 21H20C21.1046 21 22 20.1046 22 19V5C22 3.89543 21.1046 3 20 3ZM3 5C3 4.44772 3.44772 4 4 4H20C20.5523 4 21 4.44772 21 5V19C21 19.5523 20.5523 20 20 20H4C3.44772 20 3 19.5523 3 19V5Z" fill="#505E99"/>
</svg>
