<svg width="24" height="24" viewBox="0 0 24 24" fill="none" xmlns="http://www.w3.org/2000/svg">
<path fill-rule="evenodd" clip-rule="evenodd" d="M12 7C9.23858 7 7 9.23858 7 12C7 14.7614 9.23858 17 12 17C14.7614 17 17 14.7614 17 12C17 9.23858 14.7614 7 12 7ZM8 12C8 9.79086 9.79086 8 12 8C14.2091 8 16 9.79086 16 12C16 14.2091 14.2091 16 12 16C9.79086 16 8 14.2091 8 12Z" fill="#505E99"/>
<path fill-rule="evenodd" clip-rule="evenodd" d="M9.2759 2.28073C9.15216 2.20648 9.00238 2.18932 8.86505 2.23365C7.47222 2.68327 6.19183 3.42597 5.11001 4.41178C5.00387 4.5085 4.94443 4.64619 4.94685 4.78977L4.99105 7.41531C4.81763 7.67574 4.66091 7.9469 4.52181 8.22717L2.22328 9.5002C2.09747 9.56988 2.00776 9.69036 1.97706 9.83087C1.66451 11.2612 1.66788 12.7426 1.98692 14.1716C2.01802 14.3109 2.10719 14.4302 2.23194 14.4996L4.52198 15.7728C4.66212 16.0548 4.81876 16.3282 4.99109 16.5917L4.94685 19.2104C4.94443 19.354 5.00385 19.4917 5.10999 19.5884C6.19376 20.5761 7.47923 21.3164 8.8774 21.7581C9.01377 21.8012 9.16206 21.7838 9.28478 21.7104L11.533 20.365C11.8439 20.3816 12.1556 20.3816 12.4665 20.365L14.7239 21.7195C14.8476 21.7937 14.9974 21.8109 15.1348 21.7665C16.5276 21.3169 17.808 20.5742 18.8898 19.5884C18.9959 19.4917 19.0554 19.354 19.053 19.2104L19.0088 16.5849C19.1822 16.3245 19.3389 16.0533 19.478 15.773L21.7765 14.5C21.9023 14.4303 21.9921 14.3098 22.0228 14.1693C22.3353 12.739 22.3319 11.2576 22.0129 9.82865C21.9818 9.68934 21.8926 9.56996 21.7679 9.5006L19.4782 8.22758C19.3391 7.94717 19.1823 7.67587 19.0088 7.41531L19.053 4.78977C19.0554 4.64619 18.9959 4.50851 18.8898 4.41179C17.8061 3.42413 16.5206 2.68381 15.1224 2.24208C14.986 2.19899 14.8377 2.21637 14.715 2.2898L12.4668 3.63518C12.1559 3.61862 11.8443 3.61861 11.5333 3.63516L9.2759 2.28073ZM5.99358 7.55731L5.95057 5.00238C6.83406 4.23554 7.85502 3.64324 8.95925 3.25693L11.152 4.5726C11.2402 4.62547 11.3424 4.64991 11.445 4.64257C11.8144 4.61614 12.1854 4.61614 12.5549 4.64257C12.6572 4.64989 12.7593 4.62557 12.8473 4.57289L15.0325 3.26523C16.1403 3.64518 17.1645 4.23501 18.0492 5.00242L18.0062 7.55731C18.0045 7.66258 18.036 7.76572 18.0962 7.85204C18.3056 8.15175 18.4889 8.46885 18.6441 8.79986C18.6887 8.89494 18.762 8.97357 18.8538 9.0246L21.0826 10.2638C21.3092 11.41 21.312 12.5893 21.0909 13.7366L18.8545 14.9752C18.7624 15.0262 18.6888 15.105 18.6441 15.2003C18.4889 15.5313 18.3056 15.8484 18.0962 16.1482C18.036 16.2345 18.0045 16.3376 18.0062 16.4429L18.0492 18.9978C17.1658 19.7647 16.1448 20.357 15.0406 20.7433L12.8478 19.4276C12.7596 19.3747 12.6574 19.3503 12.5549 19.3576C12.1854 19.3841 11.8144 19.3841 11.445 19.3576C11.3426 19.3503 11.2405 19.3746 11.1525 19.4273L8.96735 20.735C7.85954 20.355 6.83527 19.7652 5.95059 18.9978L5.99358 16.4523C5.99533 16.3488 5.96491 16.2473 5.90651 16.1618C5.6976 15.856 5.51326 15.5341 5.35521 15.1992C5.31058 15.1046 5.2374 15.0264 5.14599 14.9756L2.91717 13.7364C2.69057 12.5902 2.68777 11.4109 2.90893 10.2636L5.14528 9.02499C5.23739 8.97398 5.31104 8.89519 5.35574 8.79986C5.51094 8.46885 5.69422 8.15175 5.90356 7.85204C5.96385 7.76572 5.99536 7.66258 5.99358 7.55731Z" fill="#505E99"/>
</svg>
