<svg width="24" height="24" viewBox="0 0 24 24" fill="none" xmlns="http://www.w3.org/2000/svg">
<path fill-rule="evenodd" clip-rule="evenodd" d="M11.3844 11.25C11.3844 12.1349 10.9664 12.9222 10.3172 13.4252C10.4786 13.5137 10.6336 13.6153 10.7805 13.7293C11.3944 14.2058 11.8322 14.8731 12.025 15.626C12.0935 15.8935 11.9322 16.1659 11.6646 16.2344C11.3971 16.3029 11.1247 16.1415 11.0563 15.874C10.9186 15.3363 10.6058 14.8596 10.1673 14.5192C9.76172 14.2044 9.26989 14.0227 8.75909 13.9972C8.71775 13.9991 8.67617 14 8.63438 14C8.59258 14 8.55101 13.9991 8.50967 13.9972C7.99887 14.0227 7.50703 14.2044 7.10145 14.5192C6.66294 14.8596 6.35019 15.3363 6.2125 15.874C6.14401 16.1415 5.87162 16.3029 5.60411 16.2344C5.33659 16.1659 5.17526 15.8935 5.24375 15.626C5.43652 14.8731 5.87437 14.2058 6.48827 13.7293C6.63518 13.6153 6.79016 13.5137 6.95159 13.4252C6.30233 12.9222 5.88438 12.1349 5.88438 11.25C5.88438 9.73122 7.11559 8.5 8.63438 8.5C10.1532 8.5 11.3844 9.73122 11.3844 11.25ZM6.88438 11.25C6.88438 10.2835 7.66788 9.5 8.63438 9.5C9.60087 9.5 10.3844 10.2835 10.3844 11.25C10.3844 12.1769 9.66377 12.9355 8.75223 12.9961C8.71301 12.9948 8.67372 12.9941 8.63438 12.9941C8.59503 12.9941 8.55574 12.9948 8.51652 12.9961C7.60498 12.9355 6.88438 12.1769 6.88438 11.25Z" fill="#505E99"/>
<path d="M13.75 10.5C13.75 10.2239 13.9739 10 14.25 10H18C18.2761 10 18.5 10.2239 18.5 10.5C18.5 10.7761 18.2761 11 18 11H14.25C13.9739 11 13.75 10.7761 13.75 10.5Z" fill="#505E99"/>
<path d="M13.75 13.5C13.75 13.2239 13.9739 13 14.25 13H18C18.2761 13 18.5 13.2239 18.5 13.5C18.5 13.7761 18.2761 14 18 14H14.25C13.9739 14 13.75 13.7761 13.75 13.5Z" fill="#505E99"/>
<path fill-rule="evenodd" clip-rule="evenodd" d="M2 6C2 4.89543 2.89543 4 4 4H20C21.1046 4 22 4.89543 22 6V18C22 19.1046 21.1046 20 20 20H4C2.89543 20 2 19.1046 2 18V6ZM4 5H20C20.5523 5 21 5.44772 21 6V18C21 18.5523 20.5523 19 20 19H4C3.44772 19 3 18.5523 3 18V6C3 5.44772 3.44772 5 4 5Z" fill="#505E99"/>
</svg>
