<svg width="24" height="24" viewBox="0 0 24 24" fill="none" xmlns="http://www.w3.org/2000/svg">
<path fill-rule="evenodd" clip-rule="evenodd" d="M14 11C14 12.6569 12.6569 14 11 14C9.34315 14 8 12.6569 8 11C8 9.34315 9.34315 8 11 8C12.6569 8 14 9.34315 14 11ZM13 11C13 12.1046 12.1046 13 11 13C9.89543 13 9 12.1046 9 11C9 9.89543 9.89543 9 11 9C12.1046 9 13 9.89543 13 11Z" fill="#505E99"/>
<path fill-rule="evenodd" clip-rule="evenodd" d="M3 5C2.44772 5 2 5.44772 2 6V16C2 16.5523 2.44772 17 3 17H19C19.5523 17 20 16.5523 20 16V6C20 5.44772 19.5523 5 19 5H3ZM19 6H3V16H19V6Z" fill="#505E99"/>
<path d="M22 9.5C22 9.22386 21.7761 9 21.5 9C21.2239 9 21 9.22386 21 9.5V18L4.5 18C4.22386 18 4 18.2239 4 18.5C4 18.7761 4.22386 19 4.5 19H21C21.5523 19 22 18.5523 22 18V9.5Z" fill="#505E99"/>
</svg>
