<svg width="24" height="24" viewBox="0 0 24 24" fill="none" xmlns="http://www.w3.org/2000/svg">
<path d="M3 5.5C3 5.22386 3.22386 5 3.5 5H20.5C20.7761 5 21 5.22386 21 5.5C21 5.77614 20.7761 6 20.5 6H3.5C3.22386 6 3 5.77614 3 5.5Z" fill="#505E99"/>
<path d="M3 11.5C3 11.2239 3.22386 11 3.5 11H20.5C20.7761 11 21 11.2239 21 11.5C21 11.7761 20.7761 12 20.5 12H3.5C3.22386 12 3 11.7761 3 11.5Z" fill="#505E99"/>
<path d="M3.5 17C3.22386 17 3 17.2239 3 17.5C3 17.7761 3.22386 18 3.5 18H20.5C20.7761 18 21 17.7761 21 17.5C21 17.2239 20.7761 17 20.5 17H3.5Z" fill="#505E99"/>
</svg>
