<svg width="32" height="32" viewBox="0 0 32 32" fill="none" xmlns="http://www.w3.org/2000/svg">
<path d="M1 8C1 4.13401 4.13401 1 8 1H24C27.866 1 31 4.13401 31 8V24C31 27.866 27.866 31 24 31H8C4.13401 31 1 27.866 1 24V8Z" stroke="#E7E8EB" stroke-width="2"/>
<path fill-rule="evenodd" clip-rule="evenodd" d="M17.3293 11.6237C17.5371 11.8056 17.5581 12.1214 17.3763 12.3293L14.1644 16L17.3763 19.6708C17.5581 19.8786 17.5371 20.1945 17.3293 20.3763C17.1214 20.5581 16.8056 20.5371 16.6237 20.3293L13.1237 16.3293C12.9588 16.1407 12.9588 15.8593 13.1237 15.6708L16.6237 11.6708C16.8056 11.4629 17.1214 11.4419 17.3293 11.6237Z" fill="#505E99"/>
</svg>
