<svg width="24" height="24" viewBox="0 0 24 24" fill="none" xmlns="http://www.w3.org/2000/svg">
<path fill-rule="evenodd" clip-rule="evenodd" d="M21 18.5C21 18.7761 20.7761 19 20.5 19H19V8.5C19 7.67157 18.3284 7 17.5 7L6.5 7C5.67157 7 5 7.67157 5 8.5V19H3.5C3.22386 19 3 18.7761 3 18.5V6.69729C3 6.48781 3.13058 6.30053 3.32715 6.22812L12 3.03285L20.6729 6.22812C20.8694 6.30053 21 6.48781 21 6.69729V18.5ZM6 19V16H18V19H6ZM18 15H6V12L18 12V15ZM18 11L6 11V8.5C6 8.22386 6.22386 8 6.5 8L17.5 8C17.7761 8 18 8.22386 18 8.5V11ZM20.5 20C21.3284 20 22 19.3284 22 18.5V6.69729C22 6.06885 21.6083 5.50703 21.0186 5.28977L12.1729 2.03083C12.0613 1.98972 11.9387 1.98972 11.8271 2.03083L2.98144 5.28977C2.39175 5.50703 2 6.06885 2 6.69729V18.5C2 19.3284 2.67157 20 3.5 20H20.5Z" fill="#505E99"/>
</svg>
