<svg width="24" height="24" viewBox="0 0 24 24" fill="none" xmlns="http://www.w3.org/2000/svg">
<path fill-rule="evenodd" clip-rule="evenodd" d="M9.53501 8.84794C10.422 8.21301 11 7.17401 11 6C11 4.067 9.43303 2.5 7.50003 2.5C5.56703 2.5 4.00003 4.067 4.00003 6C4.00003 7.17401 4.57806 8.21301 5.46505 8.84794C5.22495 8.93251 4.98974 9.03219 4.76085 9.14663C3.91036 9.57188 3.17056 10.1893 2.60003 10.95C2.43434 11.1709 2.47912 11.4843 2.70003 11.65C2.92094 11.8157 3.23434 11.7709 3.40003 11.55C3.87741 10.9135 4.49643 10.3969 5.20806 10.0411C5.91969 9.68524 6.7044 9.5 7.50003 9.5C8.29566 9.5 9.08037 9.68524 9.792 10.0411C10.5003 10.3952 11.1169 10.9087 11.5934 11.5412C11.6091 11.5631 11.6268 11.584 11.6464 11.6036C11.6886 11.6458 11.737 11.6792 11.789 11.7034C11.8563 11.7348 11.9284 11.7501 12 11.75C12.0717 11.7501 12.1438 11.7348 12.211 11.7034C12.2631 11.6792 12.3115 11.6458 12.3536 11.6036C12.3732 11.584 12.3909 11.5631 12.4067 11.5412C12.8831 10.9087 13.4997 10.3952 14.2081 10.0411C14.9197 9.68524 15.7044 9.5 16.5 9.5C17.2957 9.5 18.0804 9.68524 18.792 10.0411C19.5036 10.3969 20.1227 10.9135 20.6 11.55C20.7657 11.7709 21.0791 11.8157 21.3 11.65C21.5209 11.4843 21.5657 11.1709 21.4 10.95C20.8295 10.1893 20.0897 9.57188 19.2392 9.14663C19.0103 9.03219 18.7751 8.93251 18.535 8.84794C19.422 8.21301 20 7.17401 20 6C20 4.067 18.433 2.5 16.5 2.5C14.567 2.5 13 4.067 13 6C13 7.17401 13.5781 8.21301 14.465 8.84794C14.225 8.93251 13.9897 9.03219 13.7608 9.14663C13.0972 9.47844 12.501 9.92724 12 10.4698C11.499 9.92724 10.9028 9.47844 10.2392 9.14663C10.0103 9.03219 9.77511 8.93251 9.53501 8.84794ZM7.50003 3.5C6.11932 3.5 5.00003 4.61929 5.00003 6C5.00003 7.38071 6.11932 8.5 7.50003 8.5C8.88074 8.5 10 7.38071 10 6C10 4.61929 8.88074 3.5 7.50003 3.5ZM16.5 8.5C17.8807 8.5 19 7.38071 19 6C19 4.61929 17.8807 3.5 16.5 3.5C15.1193 3.5 14 4.61929 14 6C14 7.38071 15.1193 8.5 16.5 8.5Z" fill="#505E99"/>
<path fill-rule="evenodd" clip-rule="evenodd" d="M9.53501 18.5979C10.422 17.963 11 16.924 11 15.75C11 13.817 9.43303 12.25 7.50003 12.25C5.56703 12.25 4.00003 13.817 4.00003 15.75C4.00003 16.924 4.57806 17.963 5.46505 18.5979C5.22495 18.6825 4.98974 18.7822 4.76085 18.8966C3.91036 19.3219 3.17056 19.9393 2.60003 20.7C2.43434 20.9209 2.47912 21.2343 2.70003 21.4C2.92094 21.5657 3.23434 21.5209 3.40003 21.3C3.87741 20.6635 4.49643 20.1469 5.20806 19.7911C5.91969 19.4352 6.7044 19.25 7.50003 19.25C8.29566 19.25 9.08037 19.4352 9.792 19.7911C10.5003 20.1452 11.1169 20.6587 11.5934 21.2911C11.6091 21.3131 11.6268 21.334 11.6464 21.3536C11.6886 21.3958 11.737 21.4292 11.789 21.4534C11.8563 21.4848 11.9284 21.5001 12 21.5C12.0717 21.5001 12.1438 21.4848 12.211 21.4534C12.2631 21.4292 12.3115 21.3958 12.3536 21.3536C12.3732 21.334 12.3909 21.3131 12.4067 21.2911C12.8832 20.6587 13.4997 20.1452 14.2081 19.7911C14.9197 19.4352 15.7044 19.25 16.5 19.25C17.2957 19.25 18.0804 19.4352 18.792 19.7911C19.5036 20.1469 20.1227 20.6635 20.6 21.3C20.7657 21.5209 21.0791 21.5657 21.3 21.4C21.5209 21.2343 21.5657 20.9209 21.4 20.7C20.8295 19.9393 20.0897 19.3219 19.2392 18.8966C19.0103 18.7822 18.7751 18.6825 18.535 18.5979C19.422 17.963 20 16.924 20 15.75C20 13.817 18.433 12.25 16.5 12.25C14.567 12.25 13 13.817 13 15.75C13 16.924 13.5781 17.963 14.465 18.5979C14.225 18.6825 13.9897 18.7822 13.7608 18.8966C13.0972 19.2284 12.501 19.6772 12 20.2198C11.499 19.6772 10.9028 19.2284 10.2392 18.8966C10.0103 18.7822 9.77511 18.6825 9.53501 18.5979ZM5.00003 15.75C5.00003 14.3693 6.11932 13.25 7.50003 13.25C8.88074 13.25 10 14.3693 10 15.75C10 17.1307 8.88074 18.25 7.50003 18.25C6.11932 18.25 5.00003 17.1307 5.00003 15.75ZM16.5 18.25C17.8807 18.25 19 17.1307 19 15.75C19 14.3693 17.8807 13.25 16.5 13.25C15.1193 13.25 14 14.3693 14 15.75C14 17.1307 15.1193 18.25 16.5 18.25Z" fill="#505E99"/>
</svg>
