<svg width="24" height="24" viewBox="0 0 24 24" fill="none" xmlns="http://www.w3.org/2000/svg">
<path d="M5.64645 11.6464L8.64645 8.64645C8.84171 8.45118 9.15829 8.45118 9.35355 8.64645C9.54882 8.84171 9.54882 9.15829 9.35355 9.35355L6.70711 12L9.35355 14.6464C9.54882 14.8417 9.54882 15.1583 9.35355 15.3536C9.15829 15.5488 8.84171 15.5488 8.64645 15.3536L5.64645 12.3536C5.55268 12.2598 5.5 12.1326 5.5 12C5.5 11.8674 5.55268 11.7402 5.64645 11.6464Z" fill="#505E99"/>
<path d="M18.3536 11.6464L15.3536 8.64645C15.1583 8.45118 14.8417 8.45118 14.6464 8.64645C14.4512 8.84171 14.4512 9.15829 14.6464 9.35355L17.2929 12L14.6464 14.6464C14.4512 14.8417 14.4512 15.1583 14.6464 15.3536C14.8417 15.5488 15.1583 15.5488 15.3536 15.3536L18.3536 12.3536C18.4473 12.2598 18.5 12.1326 18.5 12C18.5 11.8674 18.4473 11.7402 18.3536 11.6464Z" fill="#505E99"/>
<path fill-rule="evenodd" clip-rule="evenodd" d="M9 4V3.50005C9 2.67165 9.67154 2 10.5 2H13.5C14.3284 2 15 2.67157 15 3.5V4H20C21.1046 4 22 4.89543 22 6V18C22 19.1046 21.1046 20 20 20H4C2.89543 20 2 19.1046 2 18V6C2 4.89543 2.89543 4 4 4H9ZM10 3.50005C10 3.22387 10.2239 3 10.5 3H13.5C13.7761 3 14 3.22386 14 3.5V4H10V3.50005ZM4 5C3.44772 5 3 5.44772 3 6V18C3 18.5523 3.44772 19 4 19H20C20.5523 19 21 18.5523 21 18V6C21 5.44772 20.5523 5 20 5H4Z" fill="#505E99"/>
</svg>
