<svg width="24" height="24" viewBox="0 0 24 24" fill="none" xmlns="http://www.w3.org/2000/svg">
<path fill-rule="evenodd" clip-rule="evenodd" d="M3 4C3 3.44772 3.44772 3 4 3H10C10.5523 3 11 3.44772 11 4V10C11 10.5523 10.5523 11 10 11H4C3.44772 11 3 10.5523 3 10V4ZM4 4H10V10H4V4Z" fill="#505E99"/>
<path fill-rule="evenodd" clip-rule="evenodd" d="M13 5C13 3.89543 13.8954 3 15 3H19C20.1046 3 21 3.89543 21 5V9C21 10.1046 20.1046 11 19 11H15C13.8954 11 13 10.1046 13 9V5ZM15 4H19C19.5523 4 20 4.44772 20 5V9C20 9.55228 19.5523 10 19 10H15C14.4477 10 14 9.55228 14 9V5C14 4.44772 14.4477 4 15 4Z" fill="#505E99"/>
<path fill-rule="evenodd" clip-rule="evenodd" d="M17 13C14.7909 13 13 14.7909 13 17C13 19.2091 14.7909 21 17 21C19.2091 21 21 19.2091 21 17C21 14.7909 19.2091 13 17 13ZM14 17C14 18.6569 15.3431 20 17 20C18.6569 20 20 18.6569 20 17C20 15.3431 18.6569 14 17 14C15.3431 14 14 15.3431 14 17Z" fill="#505E99"/>
<path fill-rule="evenodd" clip-rule="evenodd" d="M3 15C3 13.8954 3.89543 13 5 13H9C10.1046 13 11 13.8954 11 15V19C11 20.1046 10.1046 21 9 21H5C3.89543 21 3 20.1046 3 19V15ZM5 14H9C9.55228 14 10 14.4477 10 15V19C10 19.5523 9.55228 20 9 20H5C4.44772 20 4 19.5523 4 19V15C4 14.4477 4.44772 14 5 14Z" fill="#505E99"/>
</svg>
