<svg width="24" height="24" viewBox="0 0 24 24" fill="none" xmlns="http://www.w3.org/2000/svg">
<rect width="24" height="24" rx="12" fill="#007AFF"/>
<path d="M7.22656 17V5.625H9.44531L13.8438 12.9766C13.9375 13.138 14.0208 13.2917 14.0938 13.4375C14.1719 13.5833 14.2396 13.7318 14.2969 13.8828H14.3594C14.3542 13.7109 14.349 13.5417 14.3438 13.375C14.3438 13.2031 14.3438 13.0312 14.3438 12.8594V5.625H16.2109V17H13.9609L9.58594 9.67969C9.49219 9.52344 9.40885 9.36979 9.33594 9.21875C9.26302 9.06771 9.19531 8.91667 9.13281 8.76562H9.07812C9.08333 8.93229 9.08854 9.10938 9.09375 9.29688C9.09896 9.47917 9.10156 9.65365 9.10156 9.82031V17H7.22656Z" fill="white"/>
</svg>
